# xmcd
#
# Track frame offsets:
#	150
#	16355
#	35936
#	52995
#	68246
#	88452
#	104145
#	123071
#	143713
#	162547
#	182980
#	204847
#	221224
#	242233
#	257926
#	279315
#	300914
#	319081
#	339418
#
# Disc length: 4771 seconds
#
# Revision: 0
# Processed by: cddbd v1.5PL3 Copyright (c) Steve Scherf et al.
# Submitted via: dBpowerAMP V4.0
#
DISCID=2312a113
DTITLE=Whitney Houston - Maximum Whitney Houston
DYEAR=2003
DGENRE=Pop
TTITLE0=Watchulookinat
TTITLE1=My love is your love
TTITLE2=Tell me no
TTITLE3=Exhale
TTITLE4=How will I know
TTITLE5=My love
TTITLE6=Step by step
TTITLE7=Dear John letter
TTITLE8=I'm your baby tonight
TTITLE9=When U believe
TTITLE10=It's not right but it's OK
TTITLE11=Unashamed
TTITLE12=Heartbreak Hotel
TTITLE13=Love that man
TTITLE14=I'm every woman
TTITLE15=I wanna dance with somebody
TTITLE16=My name is not Susan
TTITLE17=I will always love U
TTITLE18=On my own
EXTD=Arista Records 2003
EXTT0=
EXTT1=
EXTT2=
EXTT3=
EXTT4=
EXTT5=
EXTT6=
EXTT7=
EXTT8=
EXTT9=
EXTT10=
EXTT11=
EXTT12=
EXTT13=
EXTT14=
EXTT15=
EXTT16=
EXTT17=
EXTT18=
PLAYORDER=
